<?xml version="1.0" encoding="UTF-8"?>
<svg version="1.1" xmlns="http://www.w3.org/2000/svg" width="301" height="261">
<path d="M0 0 C99.33 0 198.66 0 301 0 C301 86.13 301 172.26 301 261 C201.67 261 102.34 261 0 261 C0 174.87 0 88.74 0 0 Z " fill="#3C6F2D" transform="translate(0,0)"/>
<path d="M0 0 C1.18434128 -0.01142029 2.36868256 -0.02284058 3.58891296 -0.03460693 C4.87988892 -0.03684265 6.17086487 -0.03907837 7.5009613 -0.04138184 C8.88123094 -0.05064595 10.26149549 -0.06069632 11.64175415 -0.07147217 C15.38594418 -0.09765776 19.13006256 -0.11059882 22.87432981 -0.11949348 C25.21808845 -0.12536765 27.56182781 -0.13357982 29.90557671 -0.14250183 C37.25147455 -0.16984103 44.59732795 -0.18917713 51.94327313 -0.19690561 C60.39865084 -0.20585199 68.85337948 -0.24088166 77.30855995 -0.2989068 C83.8591258 -0.34228635 90.40951008 -0.36232203 96.96021789 -0.36498785 C100.86535034 -0.36707445 104.76987228 -0.37868192 108.67485237 -0.41462708 C112.35481525 -0.4478419 116.03371721 -0.45178074 119.71377754 -0.43434906 C121.68913182 -0.43209949 123.66445285 -0.45934447 125.63960266 -0.487854 C136.64312325 -0.38606627 144.73780273 3.16497587 153.08860779 10.28088379 C154.81907654 12.42932129 154.81907654 12.42932129 156.27610779 14.65588379 C156.76466248 15.38549316 157.25321716 16.11510254 157.75657654 16.86682129 C160.36832138 21.60013011 161.33830664 25.93427347 161.36949158 31.31253052 C161.38091187 32.49824646 161.39233215 33.6839624 161.40409851 34.90560913 C161.40745209 36.83668015 161.40745209 36.83668015 161.41087341 38.8067627 C161.42014041 40.18717981 161.43019116 41.56759186 161.44096375 42.94799805 C161.46711803 46.6879968 161.48008376 50.4279239 161.48898506 54.16799974 C161.49486316 56.50958613 161.50307595 58.8511533 161.51199341 61.19272995 C161.53932182 68.53328499 161.55866426 75.87379566 161.56639719 83.21439803 C161.57534663 91.66127571 161.61039513 100.10750416 161.66839838 108.55418456 C161.7117765 115.10052432 161.73181346 121.64668242 161.73447943 128.19316423 C161.73656575 132.09492858 161.74816771 135.99608182 161.78411865 139.89769363 C161.81733203 143.57356625 161.82127302 147.24837676 161.80384064 150.92434692 C161.80159114 152.8973063 161.82883554 154.8702324 161.85734558 156.84298706 C161.75561152 167.82750562 158.2112635 175.95287679 151.08860779 184.28088379 C148.82688904 186.01135254 148.82688904 186.01135254 146.40110779 187.46838379 C145.6134906 187.95693848 144.82587341 188.44549316 144.01438904 188.94885254 C135.85217902 192.66489208 127.52466063 192.57333464 118.72532654 192.55554199 C117.41198334 192.56065292 116.09864014 192.56576385 114.74549866 192.57102966 C111.16700031 192.58433737 107.58860811 192.58500775 104.01008987 192.58246636 C101.01317222 192.58139138 98.01627557 192.58629327 95.01936245 192.59107178 C87.94574832 192.60213777 80.87218731 192.60262033 73.79856873 192.59655762 C66.52022358 192.5905151 59.24207162 192.60284251 51.96375942 192.62412769 C45.69511153 192.64178071 39.42652494 192.64773936 33.15785313 192.64448994 C29.42242736 192.64268337 25.68713953 192.64525061 21.95173645 192.65920448 C17.78499421 192.67418987 13.61864215 192.66478046 9.45188904 192.65319824 C8.22668549 192.66084198 7.00148193 192.66848572 5.739151 192.67636108 C-3.08242621 192.6222579 -10.54893201 191.39370337 -17.91139221 186.28088379 C-18.71576721 185.74463379 -19.52014221 185.20838379 -20.34889221 184.65588379 C-26.56744411 178.89234788 -30.53462821 171.9368508 -31.10209274 163.41809464 C-31.18602779 159.8393434 -31.20445608 156.26541705 -31.20191956 152.68566895 C-31.20791107 151.31009051 -31.21471804 149.93451543 -31.22227478 148.5589447 C-31.23987723 144.83778107 -31.24462768 141.11670953 -31.24590635 137.39550829 C-31.24733161 135.06683816 -31.25160826 132.73819118 -31.25690079 130.40952682 C-31.275381 122.27483391 -31.2835738 114.14020637 -31.28199768 106.00549316 C-31.28079636 98.43971913 -31.30190193 90.8742304 -31.33348501 83.30852854 C-31.35968889 76.79788366 -31.37036328 70.28733175 -31.36908686 63.77663457 C-31.3685785 59.89469502 -31.37419194 56.0130093 -31.39544296 52.13112259 C-31.41489544 48.4783906 -31.41490264 44.82615284 -31.4004097 41.17340279 C-31.39734274 39.20589409 -31.41394826 37.23838498 -31.43128967 35.27095032 C-31.38016659 28.02721433 -30.54800125 22.59162813 -26.91139221 16.28088379 C-26.24236877 15.08398926 -26.24236877 15.08398926 -25.55982971 13.86291504 C-19.66586088 5.67282952 -10.16656432 0.05889624 0 0 Z " fill="#FBFBF6" transform="translate(81.91139221191406,26.7191162109375)"/>
<path d="M0 0 C0.80308594 -0.03738281 1.60617188 -0.07476562 2.43359375 -0.11328125 C6.59368268 -0.17496296 8.60985796 0.03312094 12.15625 2.38671875 C14.63193571 6.144456 14.88883526 9.19786643 14.75 13.5625 C14.73453125 14.31772949 14.7190625 15.07295898 14.703125 15.85107422 C14.32050073 24.4325273 11.54910672 30.37111726 5.3125 36.3125 C-0.13370968 40.63892825 -5.10842598 42.3276138 -12 42.8125 C-17.79808656 43.26603131 -21.02945098 45.42148467 -25.01171875 49.63671875 C-28.30832796 54.48142118 -27.43027121 59.72655146 -26.875 65.375 C-26.42428678 67.34526065 -25.92503824 69.30512793 -25.375 71.25 C-23.12201197 79.22047652 -22.69318074 88.32981475 -24.875 96.375 C-23.4820874 96.35928955 -23.4820874 96.35928955 -22.06103516 96.34326172 C-18.6207431 96.30920796 -15.18062973 96.28411507 -11.74023438 96.26513672 C-10.2502968 96.25506957 -8.76037903 96.24141482 -7.27050781 96.22412109 C-5.13080972 96.19990347 -2.99137247 96.18852436 -0.8515625 96.1796875 C0.43669434 96.16921387 1.72495117 96.15874023 3.05224609 96.14794922 C6.125 96.375 6.125 96.375 8.125 98.375 C8.375 101.375 8.375 101.375 8.125 104.375 C5.64816257 106.85183743 4.21353877 106.62149644 0.83258057 106.65716553 C0.09642517 106.65468811 -0.63973022 106.65221069 -1.39819336 106.6496582 C-2.17395218 106.65476913 -2.949711 106.65988007 -3.74897766 106.66514587 C-6.32101086 106.67907998 -8.89277723 106.67808224 -11.46484375 106.67578125 C-13.24841919 106.67966617 -15.03199371 106.68400041 -16.81556702 106.68876648 C-20.55733232 106.69623696 -24.29900329 106.6959315 -28.04077148 106.69067383 C-32.84070285 106.6848789 -37.64024838 106.70180665 -42.44011593 106.7250185 C-46.12466192 106.73973606 -49.80911459 106.74063024 -53.49368477 106.73750877 C-55.26355313 106.73802301 -57.03342657 106.74327989 -58.80326653 106.75332069 C-61.27657149 106.76562934 -63.74911966 106.75892736 -66.22241211 106.74731445 C-66.95654327 106.75495819 -67.69067444 106.76260193 -68.447052 106.77047729 C-71.39012273 106.7398654 -73.39702335 106.70240431 -75.86500549 105.0118866 C-76.875 103.375 -76.875 103.375 -76.6875 100.8125 C-75.875 98.375 -75.875 98.375 -73.875 96.375 C-71.08283209 96.12930728 -68.38259395 96.00136862 -65.5859375 95.9609375 C-64.76751373 95.94157135 -63.94908997 95.9222052 -63.10586548 95.9022522 C-60.48735024 95.84238918 -57.86879119 95.79604468 -55.25 95.75 C-53.47654314 95.71182636 -51.70310495 95.67277499 -49.9296875 95.6328125 C-45.57827625 95.53668229 -41.22677821 95.45267649 -36.875 95.375 C-33.4410024 87.18176711 -34.35686341 79.6520156 -37.21875 71.37109375 C-37.875 69.375 -37.875 69.375 -37.875 67.375 C-39.5765625 67.87 -39.5765625 67.87 -41.3125 68.375 C-50.40355808 70.59583844 -59.12362594 69.71450752 -67.296875 64.96875 C-75.01889698 59.47523101 -80.10809361 51.73960385 -81.875 42.375 C-82.37396171 38.24074584 -82.41405535 36.23349555 -80.1875 32.6875 C-74.95359658 28.1584489 -66.86297688 26.72950573 -60.1875 25.9375 C-52.91862381 26.89754025 -46.74426589 28.87067967 -40.875 33.375 C-39.9675 34.055625 -39.06 34.73625 -38.125 35.4375 C-35.875 37.375 -35.875 37.375 -33.875 40.375 C-32.555 39.715 -31.235 39.055 -29.875 38.375 C-29.83632812 36.69083984 -29.83632812 36.69083984 -29.796875 34.97265625 C-29.41438745 23.55540276 -28.33806864 14.83806864 -19.875 6.375 C-13.23030905 1.56737067 -8.10068551 0.14166541 0 0 Z " fill="#417033" transform="translate(180.875,69.625)"/>
<path d="M0 0 C5.71587081 3.14415614 9.78272468 6.80490486 12.23828125 12.9375 C12.55078125 15.9375 12.55078125 15.9375 12.23828125 17.9375 C7.18078169 20.92875271 1.93568129 20.60398831 -3.76171875 19.9375 C-10.81472901 17.82908874 -14.21497697 13.58475045 -17.765625 7.33984375 C-18.76171875 4.9375 -18.76171875 4.9375 -18.76171875 0.9375 C-12.55349695 -1.82666339 -6.44305604 -2.47879949 0 0 Z " fill="#F6F8F0" transform="translate(128.76171875,108.0625)"/>
<path d="M0 0 C0.3221077 6.03653699 0.56806924 10.83245145 -3 16 C-7.29179179 19.96165396 -10.84572938 22.29865502 -16.75 22.125 C-17.54921875 22.10695313 -18.3484375 22.08890625 -19.171875 22.0703125 C-19.77515625 22.04710938 -20.3784375 22.02390625 -21 22 C-21.4108102 16.32853699 -21.66280849 11.38997432 -18.38671875 6.5390625 C-13.10250365 0.67432799 -7.69849948 -0.80192703 0 0 Z " fill="#F6F9F0" transform="translate(184,80)"/>
</svg>
